<svg xmlns="http://www.w3.org/2000/svg" width="620" height="150" viewBox="0 0 620 150">
<g transform="translate(10,19) scale(0.219)">
<defs><clipPath id="tagL"><path d="M272 48 L464 240 a32 32 0 0 1 0 48 L288 464 a32 32 0 0 1 -48 0 L48 272 a32 32 0 0 1 -9.6 -22.4 L32 80 a48 48 0 0 1 48 -48 L256 38.4 A32 32 0 0 1 272 48 Z"/></clipPath></defs>
<g clip-path="url(#tagL)">
<rect x="0" y="0" width="512" height="176" fill="#16A34A"/>
<rect x="0" y="176" width="512" height="160" fill="#FCD34D"/>
<rect x="0" y="336" width="512" height="176" fill="#1E40AF"/>
</g>
<circle cx="128" cy="128" r="34" fill="#fff"/>
</g>
<text x="140" y="78" font-family="Arial, Helvetica, sans-serif" font-size="54" font-weight="800" letter-spacing="-2" fill="#1E3A8A">Gabon<tspan fill="#16A34A">Price</tspan></text>
<text x="142" y="110" font-family="Arial, Helvetica, sans-serif" font-size="20" font-weight="600" fill="#6B7280">Le prix juste, partout au Gabon</text>
</svg>